<svg xmlns="http://www.w3.org/2000/svg" xmlns:xlink="http://www.w3.org/1999/xlink"  
zoomAndPan="magnify" viewBox="0 0 810 809.999993" preserveAspectRatio="xMidYMid meet" version="1.0"><defs><g/><clipPath id="05f3dda95b"><path d="M 13.855469 10.300781 L 796.144531 10.300781 L 796.144531 799 L 13.855469 799 Z M 13.855469 10.300781 " clip-rule="nonzero"/></clipPath><clipPath id="bf54541681"><path d="M 52.105469 10.300781 L 757.894531 10.300781 C 768.039062 10.300781 777.769531 14.332031 784.941406 21.503906 C 792.113281 28.679688 796.144531 38.40625 796.144531 48.550781 L 796.144531 761.449219 C 796.144531 771.59375 792.113281 781.320312 784.941406 788.492188 C 777.769531 795.667969 768.039062 799.699219 757.894531 799.699219 L 52.105469 799.699219 C 41.960938 799.699219 32.230469 795.667969 25.058594 788.492188 C 17.886719 781.320312 13.855469 771.59375 13.855469 761.449219 L 13.855469 48.550781 C 13.855469 38.40625 17.886719 28.679688 25.058594 21.503906 C 32.230469 14.332031 41.960938 10.300781 52.105469 10.300781 Z M 52.105469 10.300781 " clip-rule="nonzero"/></clipPath></defs><g clip-path="url(#05f3dda95b)"><g clip-path="url(#bf54541681)"><path fill="#ffffff" d="M 13.855469 10.300781 L 796.144531 10.300781 L 796.144531 798.703125 L 13.855469 798.703125 Z M 13.855469 10.300781 " fill-opacity="1" fill-rule="nonzero"/></g></g><g fill="#000000" fill-opacity="1"><g transform="translate(-12.577711, 725.09681)"><g><path d="M 59.921875 -634.203125 L 244.28125 -634.203125 L 244.28125 0 L 59.921875 0 Z M 282.984375 -634.203125 L 498.6875 -634.203125 L 498.6875 -493.15625 L 282.984375 -493.15625 Z M 282.984375 -372.40625 L 464.578125 -372.40625 L 464.578125 -231.375 L 282.984375 -231.375 Z M 282.984375 -372.40625 "/></g></g></g><g fill="#002366" fill-opacity="1"><g transform="translate(518.382012, 725.09681)"><g><path d="M 59 -150.25 L 245.203125 -150.25 L 245.203125 0 L 59 0 Z M 59 -150.25 "/></g></g></g>
<defs>
<clipPath id="clip0_71_50">
<rect width="100" height="100" rx="10" fill="white"/>
</clipPath>
</defs>
</svg>

</svg>

